<svg width="0" height="0" class="hidden">
	<symbol fill="inherit" xmlns="http://www.w3.org/2000/svg" viewBox="0 0 32 32" id="edit">
		<path
			fill="inherit"
			d="M12.8 13L11 19.2a1.5 1.5 0 001.8 1.8l6.2-1.8.7-.4L31 7.4a1.5 1.5 0 000-2.1L26.7.9c-.6-.5-1.5-.5-2.1 0L13.2 12.3l-.4.7zm2.8 1.2l10-10 2.4 2-10 10.1-3.3 1 1-3.2z"
		/>
		<path
			fill="inherit"
			d="M30 14.5c-.8 0-1.5.7-1.5 1.5v10c0 1.4-1.1 2.5-2.5 2.5H6A2.5 2.5 0 013.5 26V6c0-1.4 1.1-2.5 2.5-2.5h10a1.5 1.5 0 000-3H6C3 .5.5 3 .5 6v20c0 3 2.5 5.5 5.5 5.5h20c3 0 5.5-2.5 5.5-5.5V16c0-.8-.7-1.5-1.5-1.5z"
		/>
	</symbol>
	<symbol fill="inherit" xmlns="http://www.w3.org/2000/svg" viewBox="0 0 92 92" id="plus">
		<path
			fill="inherit"
			d="M72.5 46.5c0 2.5-2 4.5-4.5 4.5H50v17c0 2.5-2 4.5-4.5 4.5S41 70.5 41 68V51H24c-2.5 0-4.5-2-4.5-4.5s2-4.5 4.5-4.5h17V24c0-2.5 2-4.5 4.5-4.5s4.5 2 4.5 4.5v18h18c2.5 0 4.5 2 4.5 4.5z"
		/>
	</symbol>
	<symbol fill="inherit" xmlns="http://www.w3.org/2000/svg" viewBox="0 0 29 29" id="trash">
		<path
			fill="inherit"
			d="M19.8 27H9.2a3 3 0 01-3-2.7L4.5 7.1a1 1 0 011-1.1h18a1 1 0 011 1.1l-1.7 17.2a3 3 0 01-3 2.7zM6.6 8l1.6 16.1a1 1 0 001 .9h10.6a1 1 0 001-.9L22.4 8H6.6z"
		/>
		<path
			fill="inherit"
			d="M26 8H3a1 1 0 110-2h23a1 1 0 110 2zM14.5 23a1 1 0 01-1-1V11a1 1 0 112 0v11a1 1 0 01-1 1zM11 23a1 1 0 01-1-1L9 11a1 1 0 011-1 1 1 0 011 1l1 11a1 1 0 01-1 1zm7 0a1 1 0 01-1-1l1-11c0-.6.5-1 1-1a1 1 0 011 1l-1 11a1 1 0 01-1 1z"
		/>
		<path
			fill="inherit"
			d="M19 8h-9a1 1 0 01-1-1V3a1 1 0 011-1h9a1 1 0 011 1v4a1 1 0 01-1 1zm-8-2h7V4h-7v2z"
		/>
	</symbol>
	<symbol fill="inherit" xmlns="http://www.w3.org/2000/svg" viewBox="0 0 24 24" id="close">
		<path
			fill="inherit"
			d="M15.7 8.3a1 1 0 00-1.4 0L12 10.6 9.7 8.3a1 1 0 00-1.4 1.4l2.3 2.3-2.3 2.3a1 1 0 000 1.4 1 1 0 001.4 0l2.3-2.3 2.3 2.3a1 1 0 001.4 0 1 1 0 000-1.4L13.4 12l2.3-2.3a1 1 0 000-1.4zm3.4-3.4A10 10 0 104.9 19.1 10 10 0 1019.1 4.9zm-1.4 12.8A8 8 0 1120 12a8 8 0 01-2.3 5.7z"
		/>
	</symbol>
	<symbol fill="inherit" xmlns="http://www.w3.org/2000/svg" viewBox="0 0 48 48" id="search">
		<path
			d="M46.6 46.6a4.5 4.5 0 01-6.4 0l-8-8A20.9 20.9 0 010 21a21 21 0 1138.7 11.3l7.9 8a4.5 4.5 0 010 6.3zM21 6a15 15 0 100 30 15 15 0 000-30z"
		/>
	</symbol>
	<symbol fill="inherit" xmlns="http://www.w3.org/2000/svg" viewBox="0 0 24 24" id="home">
		<path
			d="M20 8l-6-5.3a3 3 0 00-4 0L4 8a3 3 0 00-1 2.3V19a3 3 0 003 3h12a3 3 0 003-3v-8.8A3 3 0 0020 8zm-6 12h-4v-5a1 1 0 011-1h2a1 1 0 011 1zm5-1a1 1 0 01-1 1h-2v-5a3 3 0 00-3-3h-2a3 3 0 00-3 3v5H6a1 1 0 01-1-1v-8.8a1 1 0 01.3-.7l6-5.3a1 1 0 011.4 0l6 5.3a1 1 0 01.3.8z"
		/>
	</symbol>
	<symbol fill="inherit" viewBox="0 0 25 23" xmlns="http://www.w3.org/2000/svg" id="settings">
		<path
			fill-rule="evenodd"
			clip-rule="evenodd"
			d="M12.5 6a5.5 5.5 0 1 0 0 11 5.5 5.5 0 0 0 0-11Zm0 2a3.5 3.5 0 1 0 0 7 3.5 3.5 0 0 0 0-7Z"
			fill="inherit"
		/>
		<path
			fill-rule="evenodd"
			clip-rule="evenodd"
			d="M16.6 22.5c1.1 0 1.7 0 2.1-.3.5-.3.8-.7 1.4-1.7l3.9-6.8c.6-1 .8-1.5.8-2 0-.6-.2-1-.8-2l-4-6.9c-.5-1-.8-1.4-1.3-1.7-.4-.3-1-.3-2.1-.3H8.7c-1.1 0-1.7 0-2.1.3-.5.3-.8.8-1.4 1.7L1.3 9.7c-.6 1-.8 1.4-.8 2 0 .5.2 1 .8 2l4 6.8c.5 1 .8 1.4 1.3 1.7.4.3 1 .3 2.1.3h7.9Zm-1-1.8c1.1 0 1.7 0 2.1-.2.5-.3.8-.8 1.3-1.8l3-5c.5-1 .8-1.5.8-2 0-.6-.3-1-.8-2l-3-5.2c-.5-1-.8-1.4-1.3-1.7-.4-.3-1-.3-2.1-.3h-6c-1 0-1.6 0-2 .3-.5.3-.8.8-1.4 1.7l-3 5.1c-.5 1-.8 1.5-.8 2 0 .6.3 1 .9 2l3 5.1c.5 1 .8 1.5 1.2 1.8.5.2 1 .2 2.2.2h5.9Z"
			fill="inherit"
		/>
	</symbol>
	<symbol fill="inherit" xmlns="http://www.w3.org/2000/svg" viewBox="0 0 330 330" id="exit">
		<path
			d="M51.2 180H225a15 15 0 000-30H51.2l19.4-19.4a15 15 0 10-21.2-21.2l-45 45-1 1-.2.4-.7.9-.1.2-.6 1-.1.2-.6 1.2-.4 1.3v.2L.2 162v.4a14 14 0 00-.2 4.1l.1 1v.5l.4 1.2v.2l.5 1.2v.2l.6 1v.3l.7 1 .1.2.7 1 .2.2 1 1.1 45 45a15 15 0 0021.2 0 15 15 0 000-21.2L51.2 180z"
		/>
		<path
			d="M207.3 42.3c-41 0-79 20.3-101.9 54.3a15 15 0 0024.9 16.8 92.7 92.7 0 11.1 103.4 15 15 0 00-24.8 16.8A122.6 122.6 0 10207.3 42.3z"
		/>
	</symbol>
	<symbol viewBox="0 0 25 17" fill="inherit" xmlns="http://www.w3.org/2000/svg" id="sort">
		<rect width="25" height="3" rx="1.5" fill="inherit" />
		<rect y="14" width="13" height="3" rx="1.5" fill="inherit" />
		<rect y="7" width="20" height="3" rx="1.5" fill="inherit" />
	</symbol>
	<symbol viewBox="0 0 25 25" fill="inherit" xmlns="http://www.w3.org/2000/svg" id="date">
		<path
			fill-rule="evenodd"
			clip-rule="evenodd"
			d="M12.5 0a12.5 12.5 0 1 0 0 25 12.5 12.5 0 0 0 0-25Zm0 2a10.5 10.5 0 1 0 0 21 10.5 10.5 0 0 0 0-21Z"
		/>
		<rect x="11.3" y="5" width="2" height="10" rx="1" />
		<rect x="11.5" y="13" width="7.5" height="2" rx="1" />
	</symbol>
	<symbol fill="inherit" viewBox="0 0 25 25" xmlns="http://www.w3.org/2000/svg" id="help">
		<path
			fill-rule="evenodd"
			clip-rule="evenodd"
			d="M12.5 0a12.5 12.5 0 1 0 0 25 12.5 12.5 0 0 0 0-25Zm0 2a10.5 10.5 0 1 0 0 21 10.5 10.5 0 0 0 0-21Z"
			fill="inherit"
		/>
		<path
			fill-rule="evenodd"
			clip-rule="evenodd"
			d="M12.5 7a5.5 5.5 0 1 0 0 11 5.5 5.5 0 0 0 0-11Zm0 2a3.5 3.5 0 1 0 0 7 3.5 3.5 0 0 0 0-7Z"
			fill="inherit"
		/>
		<path
			fill="inherit"
			d="m4 6 4.6 2.6-1 1.8L3 7.7zM21.1 6l-4.7 2.8 1 1.7L22 7.7zM4 19.5l5-2.9L8 15l-5 3zM21.1 19.6l-5-3 1-1.7 5 3z"
		/>
	</symbol>
	<symbol viewBox="0 0 18 23" fill="inherit" xmlns="http://www.w3.org/2000/svg" id="copy">
		<path
			fill-rule="evenodd"
			clip-rule="evenodd"
			d="M5.4 4.8c-.6.6-.6 1.5-.6 3.4V19c0 1.9 0 2.8.6 3.4.6.6 1.5.6 3.4.6H14c1.9 0 2.8 0 3.4-.6.6-.6.6-1.5.6-3.4V8.2c0-1.9 0-2.8-.6-3.4-.6-.6-1.5-.6-3.4-.6H8.8c-1.9 0-2.8 0-3.4.6ZM8 6a1 1 0 0 0-1 1v13c0 .6.4 1 1 1h7c.6 0 1-.4 1-1V7c0-.6-.4-1-1-1H8Z"
			fill="inherit"
		/>
		<path
			fill-rule="evenodd"
			clip-rule="evenodd"
			d="M.6.6C0 1.2 0 2 0 4v10.9c0 1.9 0 2.8.6 3.4.3.3.7.5 1.4.5V3c0-.6.4-1 1-1h10.2c0-.6-.2-1-.6-1.4-.5-.6-1.5-.6-3.4-.6H4C2.1 0 1.2 0 .6.6Z"
			fill="inherit"
		/>
	</symbol>
	<symbol viewBox="0 0 25 16" fill="inherit" xmlns="http://www.w3.org/2000/svg" id="shortcuts">
		<path
			fill-rule="evenodd"
			clip-rule="evenodd"
			d="M9.1.3c-.3.3-.3.8-.3 1.7v3.3c0 1 0 1.4.3 1.7.3.3.8.3 1.7.3h3.4c1 0 1.4 0 1.7-.3.3-.3.3-.8.3-1.7V2c0-1 0-1.4-.3-1.7-.3-.3-.8-.3-1.7-.3h-3.4c-1 0-1.4 0-1.7.3Zm1.6.6a1 1 0 0 0-1 1v3.5c0 .6.4 1 1 1h3.6c.6 0 1-.4 1-1V2c0-.6-.4-1-1-1h-3.6ZM9.1 9c-.3.3-.3.8-.3 1.7V14c0 1 0 1.4.3 1.7.3.3.8.3 1.7.3h3.4c1 0 1.4 0 1.7-.3.3-.3.3-.8.3-1.7v-3.3c0-1 0-1.4-.3-1.7-.3-.3-.8-.3-1.7-.3h-3.4c-1 0-1.4 0-1.7.3Zm1.6.6a1 1 0 0 0-1 1V14c0 .6.4 1 1 1h3.6c.6 0 1-.4 1-1v-3.5c0-.6-.4-1-1-1h-3.6ZM.3 9c-.3.3-.3.8-.3 1.7V14c0 1 0 1.4.3 1.7.3.3.8.3 1.7.3h3.4c.9 0 1.4 0 1.7-.3.3-.3.3-.8.3-1.7v-3.3c0-1 0-1.4-.3-1.7-.3-.3-.8-.3-1.7-.3H2C1 8.7.6 8.7.3 9Zm1.6.6a1 1 0 0 0-1 1V14c0 .6.4 1 1 1h3.6c.5 0 1-.4 1-1v-3.5c0-.6-.5-1-1-1H1.9ZM18 9c-.4.3-.4.8-.4 1.7V14c0 1 0 1.4.3 1.7.3.3.8.3 1.7.3H23c1 0 1.4 0 1.7-.3.3-.3.3-.8.3-1.7v-3.3c0-1 0-1.4-.3-1.7-.3-.3-.8-.3-1.7-.3h-3.4c-.9 0-1.4 0-1.7.3Zm1.5.6a1 1 0 0 0-1 1V14c0 .6.5 1 1 1h3.6c.6 0 1-.4 1-1v-3.5c0-.6-.4-1-1-1h-3.6Z"
			fill="inherit"
		/>
		<path
			fill-rule="evenodd"
			clip-rule="evenodd"
			d="m14 4.5-1.5-2-1.5 2h.6l.9-1.2.9 1.2h.6ZM20.5 14l2-1.5-2-1.5v.6l1.2.9-1.2.9v.6ZM4.5 14l-2-1.5 2-1.5v.6l-1.2.9 1.2.9v.6ZM14 11.5l-1.5 2-1.5-2h.6l.9 1.2.9-1.2h.6Z"
			fill="inherit"
		/>
	</symbol>
</svg>
